<svg version="1.1" id="Capa_1" x="0px" y="0px" viewBox="0 0 24 24" xmlns="http://www.w3.org/2000/svg">
  <defs></defs>
  <symbol id="root" viewBox="0 0 24 24">
  <g style="" transform="matrix(0.070758, 0, 0, 0.072436, 1.718748, 1.553803)">
    <polygon points="250,268.75 15,268.75 15,33.75 207.47,33.75 207.47,18.75 0,18.75 0,283.75 265,283.75 265,76.28 250,76.28 		"></polygon>
    <polygon points="292.934 24.739 265.961 24.739 265.961 0 244.382 0 244.382 24.739 217.408 24.739 217.408 44.529 244.382 44.529 244.382 69.267 265.961 69.267 265.961 44.529 292.934 44.529" style=""></polygon>
    <rect x="53.455" y="79.714" width="128.073" height="25"></rect>
    <rect x="53.455" y="143.75" width="158.091" height="15"></rect>
    <rect x="53.455" y="207.786" width="128.073" height="15"></rect>
  </g>
  </symbol>
</svg>