<svg width="48" height="48" xmlns="http://www.w3.org/2000/svg">
  <symbol id="root" viewBox="0 0 48 48">
    <path d="M44.45,13.436c-0.476-0.591-1.192-0.936-1.95-0.936H40c0-1.381-1.119-2.5-2.5-2.5H30c-1.381,0-2.5,1.119-2.5,2.5h-15
      c-1.172,0-2.186,0.814-2.439,1.958c0,0-5.059,22.862-5.059,23.042H2.5v-30H35C35,6.119,33.881,5,32.5,5h-30C1.119,5,0,6.119,0,7.5
      v30C0,38.881,1.119,40,2.5,40h5h25h5c1.172,0,2.186-0.814,2.439-1.957l5-22.5C45.105,14.802,44.925,14.027,44.45,13.436z
      M37.299,20.767h-2.363v2.366c0,0.664-0.539,1.202-1.203,1.202s-1.203-0.538-1.203-1.202v-2.366h-2.364
      c-0.662,0-1.202-0.539-1.202-1.204c0-0.663,0.54-1.202,1.202-1.202h2.364v-2.365c0-0.665,0.539-1.203,1.203-1.203
      s1.203,0.539,1.203,1.203v2.365h2.363c0.666,0,1.203,0.539,1.203,1.204C38.502,20.229,37.965,20.767,37.299,20.767z"/>
  </symbol>
</svg>
